<svg width="32" height="31" viewBox="0 0 32 31" fill="none" xmlns="http://www.w3.org/2000/svg">
<g id="ph:globe">
<path id="Vector" d="M16.6154 1.21094C13.8135 1.21094 11.0745 2.03702 8.74483 3.58471C6.41513 5.1324 4.59935 7.33219 3.52711 9.90591C2.45487 12.4796 2.17432 15.3117 2.72095 18.0439C3.26757 20.7762 4.61681 23.2859 6.59806 25.2557C8.5793 27.2256 11.1036 28.567 13.8516 29.1105C16.5997 29.654 19.4481 29.3751 22.0368 28.309C24.6254 27.2429 26.8379 25.4376 28.3946 23.1213C29.9512 20.805 30.7821 18.0818 30.7821 15.2961C30.7781 11.5617 29.2843 7.98134 26.6284 5.34073C23.9725 2.70011 20.3714 1.21488 16.6154 1.21094ZM13.0233 20.7134H20.2075C19.476 23.1973 18.25 25.436 16.6154 27.1993C14.9808 25.436 13.7548 23.1973 13.0233 20.7134ZM12.5289 18.5465C12.1674 16.3944 12.1674 14.1977 12.5289 12.0456H20.7019C21.0634 14.1977 21.0634 16.3944 20.7019 18.5465H12.5289ZM4.62822 15.2961C4.62728 14.1969 4.77994 13.103 5.08183 12.0456H10.3208C9.99567 14.2005 9.99567 16.3916 10.3208 18.5465H5.08183C4.77994 17.4891 4.62728 16.3952 4.62822 15.2961ZM20.2075 9.8787H13.0233C13.7548 7.39484 14.9808 5.15612 16.6154 3.39278C18.25 5.15612 19.476 7.39484 20.2075 9.8787ZM22.91 12.0456H28.149C28.7538 14.1709 28.7538 16.4212 28.149 18.5465H22.91C23.2351 16.3916 23.2351 14.2005 22.91 12.0456ZM27.2908 9.8787H22.4646C21.9085 7.70297 20.9745 5.64049 19.7048 3.78418C21.327 4.2176 22.8399 4.98375 24.1464 6.03337C25.4529 7.08299 26.524 8.39284 27.2908 9.8787ZM13.526 3.78418C12.2563 5.64049 11.3223 7.70297 10.7662 9.8787H5.94C6.70681 8.39284 7.7779 7.08299 9.08438 6.03337C10.3909 4.98375 11.9038 4.2176 13.526 3.78418ZM5.94 20.7134H10.7662C11.3223 22.8891 12.2563 24.9516 13.526 26.8079C11.9038 26.3745 10.3909 25.6084 9.08438 24.5587C7.7779 23.5091 6.70681 22.1993 5.94 20.7134ZM19.7048 26.8079C20.9745 24.9516 21.9085 22.8891 22.4646 20.7134H27.2908C26.524 22.1993 25.4529 23.5091 24.1464 24.5587C22.8399 25.6084 21.327 26.3745 19.7048 26.8079Z" fill="white"/>
</g>
</svg>
