<svg width="31" height="31" viewBox="0 0 31 31" fill="none" xmlns="http://www.w3.org/2000/svg">
<g id="material-symbols:mail-outline">
<path id="Vector" d="M5.16683 25.8334C4.45641 25.8334 3.84847 25.5807 3.343 25.0752C2.83752 24.5697 2.58436 23.9614 2.5835 23.2501V7.75008C2.5835 7.03966 2.83666 6.43172 3.343 5.92625C3.84933 5.42078 4.45727 5.16761 5.16683 5.16675H25.8335C26.5439 5.16675 27.1523 5.41991 27.6586 5.92625C28.165 6.43258 28.4177 7.04053 28.4168 7.75008V23.2501C28.4168 23.9605 28.1641 24.5689 27.6586 25.0752C27.1531 25.5815 26.5448 25.8343 25.8335 25.8334H5.16683ZM15.5002 16.7917L5.16683 10.3334V23.2501H25.8335V10.3334L15.5002 16.7917ZM15.5002 14.2084L25.8335 7.75008H5.16683L15.5002 14.2084ZM5.16683 10.3334V7.75008V23.2501V10.3334Z" fill="white"/>
</g>
</svg>
