<svg width="22" height="31" viewBox="0 0 22 31" fill="none" xmlns="http://www.w3.org/2000/svg">
<path id="Vector" d="M21.5833 10.7917C21.5833 9.37449 21.3042 7.97118 20.7619 6.66188C20.2195 5.35257 19.4246 4.1629 18.4225 3.16081C17.4204 2.15871 16.2308 1.3638 14.9215 0.821467C13.6122 0.279135 12.2088 0 10.7917 0C9.37449 0 7.97118 0.279135 6.66187 0.821467C5.35257 1.3638 4.1629 2.15871 3.16081 3.16081C2.15871 4.1629 1.3638 5.35257 0.821467 6.66188C0.279134 7.97118 -2.11177e-08 9.37449 0 10.7917C0 12.93 0.630542 14.9187 1.70354 16.596H1.69121L10.7917 30.8333L19.8921 16.596H19.8813C20.9927 14.8641 21.5834 12.8495 21.5833 10.7917ZM10.7917 15.4167C9.56504 15.4167 8.38865 14.9294 7.5213 14.062C6.65394 13.1947 6.16667 12.0183 6.16667 10.7917C6.16667 9.56504 6.65394 8.38865 7.5213 7.5213C8.38865 6.65394 9.56504 6.16667 10.7917 6.16667C12.0183 6.16667 13.1947 6.65394 14.062 7.5213C14.9294 8.38865 15.4167 9.56504 15.4167 10.7917C15.4167 12.0183 14.9294 13.1947 14.062 14.062C13.1947 14.9294 12.0183 15.4167 10.7917 15.4167Z" fill="white"/>
</svg>
